<svg xmlns="http://www.w3.org/2000/svg" viewBox="0 0 488.24 98.64"><title>Asset 1</title><g id="Layer_2" data-name="Layer 2"><g id="Layer_1-2" data-name="Layer 1"><path d="M79.25,45.29h-.52l-7,14.44L53.09,94.08,34.48,59.73l-7-14.44h-.52v65.19H10.67V19.65H30.06L53.35,64h.52l23-44.37H95.52v90.83H79.25Z" transform="translate(-10.67 -13.4)" style="fill:#ffc90e"/><path d="M115.82,110.48V42.55h16.65V56.61h.65a22,22,0,0,1,2-5.27,16.09,16.09,0,0,1,3.58-4.49A17.09,17.09,0,0,1,144,43.72a19.77,19.77,0,0,1,7.09-1.17h3.65V58.3h-5.21q-8.46,0-12.75,2.47t-4.3,8.07v41.64Z" transform="translate(-10.67 -13.4)" style="fill:#ffc90e"/><path d="M168,19.65h42a28.34,28.34,0,0,1,10.08,1.69A22,22,0,0,1,227.73,26a19.42,19.42,0,0,1,4.75,7.35,27.25,27.25,0,0,1,1.62,9.56,24.83,24.83,0,0,1-1.36,8.79,17.13,17.13,0,0,1-3.65,5.92,15,15,0,0,1-5.2,3.51,18.07,18.07,0,0,1-6,1.3v.78a19.9,19.9,0,0,1,6.44,1.18,19,19,0,0,1,6.37,3.7,20.39,20.39,0,0,1,4.88,6.51,22,22,0,0,1,2,9.83,29.24,29.24,0,0,1-1.76,10.21,25.66,25.66,0,0,1-4.88,8.26,22.51,22.51,0,0,1-7.42,5.53,21.66,21.66,0,0,1-9.37,2H168Zm17.17,37.87h21.22A10,10,0,0,0,213.67,55a9.42,9.42,0,0,0,2.61-7.09v-4a9.44,9.44,0,0,0-2.61-7.09,10,10,0,0,0-7.28-2.54H185.17Zm0,38.39h24q4.94,0,7.68-2.54T219.53,86V81.59q0-4.82-2.73-7.42t-7.68-2.6h-24Z" transform="translate(-10.67 -13.4)" style="fill:#ffc90e"/><path d="M261.56,32.66c-3.47,0-6-.78-7.48-2.34a8.23,8.23,0,0,1-2.28-6v-2.6a8.21,8.21,0,0,1,2.28-6c1.51-1.57,4-2.35,7.48-2.35s5.86.78,7.42,2.35a8.09,8.09,0,0,1,2.34,6v2.6a8.12,8.12,0,0,1-2.34,6C267.42,31.88,264.94,32.66,261.56,32.66Zm-8.33,9.89h16.66v67.93H253.23Z" transform="translate(-10.67 -13.4)" style="fill:#ffc90e"/><path d="M310.36,110.48q-8.6,0-13.08-4.48t-4.49-12.79V56h-10V42.55H288q3.76,0,5.14-1.75a8.51,8.51,0,0,0,1.36-5.27V23.94h15V42.55h13.92V56H309.45V97.08h12.88v13.4Z" transform="translate(-10.67 -13.4)" style="fill:#ffc90e"/><path d="M364.75,112a34,34,0,0,1-13.47-2.53,28,28,0,0,1-10-7.16A32.14,32.14,0,0,1,335,91.16a46.29,46.29,0,0,1-2.21-14.77,46.43,46.43,0,0,1,2.15-14.58,31.87,31.87,0,0,1,6.18-11.12A27.33,27.33,0,0,1,351,43.53,33.09,33.09,0,0,1,364.23,41,32.42,32.42,0,0,1,378,43.72a26.77,26.77,0,0,1,9.63,7.42A32.16,32.16,0,0,1,393.32,62a45.26,45.26,0,0,1,1.88,13.21v5.46H350.05v1.68q0,7.36,4.16,11.82t12.36,4.46a18.44,18.44,0,0,0,10.22-2.58,29.39,29.39,0,0,0,7.09-6.59l9,10a28,28,0,0,1-11.39,9.2A39.69,39.69,0,0,1,364.75,112Zm-.26-58.56A13.35,13.35,0,0,0,354,57.91q-3.9,4.43-3.9,11.45v1H377.9V69.23q0-7-3.45-11.39T364.49,53.48Z" transform="translate(-10.67 -13.4)" style="fill:#ffc90e"/><path d="M400.8,110.48,424,76,401.32,42.55h19l14.05,22.52h.52l13.93-22.52h17.69l-23,33.71,23.16,34.22h-19L433.33,87.06h-.52L418.5,110.48Z" transform="translate(-10.67 -13.4)" style="fill:#ffc90e"/><path d="M488.5,111.91c-3.55,0-6.18-.89-7.87-2.66a9.53,9.53,0,0,1-2.54-6.84v-2.34a9.78,9.78,0,0,1,2.54-6.9c1.69-1.82,4.32-2.73,7.87-2.73s6.29.91,7.94,2.73a9.92,9.92,0,0,1,2.48,6.9v2.34a9.67,9.67,0,0,1-2.48,6.84C494.79,111,492.15,111.91,488.5,111.91Z" transform="translate(-10.67 -13.4)" style="fill:#ed1c24"/></g></g></svg>